<mxfile host="app.diagrams.net" modified="2021-10-03T06:44:22.264Z" agent="5.0 (Windows)" etag="0imG7cV8juyu2PGgVCWW" version="15.4.1" type="github">
  <diagram id="Efw3HggVqYkUfNNHv9gO" name="Page-1">
    <mxGraphModel dx="1021" dy="529" grid="1" gridSize="10" guides="1" tooltips="1" connect="1" arrows="1" fold="1" page="1" pageScale="1" pageWidth="850" pageHeight="1100" math="0" shadow="0">
      <root>
        <mxCell id="0" />
        <mxCell id="1" parent="0" />
        <mxCell id="LXjxUTPWMyTvLuDhcRor-3" value="" style="edgeStyle=orthogonalEdgeStyle;rounded=0;orthogonalLoop=1;jettySize=auto;html=1;" parent="1" source="LXjxUTPWMyTvLuDhcRor-1" target="LXjxUTPWMyTvLuDhcRor-2" edge="1">
          <mxGeometry relative="1" as="geometry" />
        </mxCell>
        <mxCell id="LXjxUTPWMyTvLuDhcRor-1" value="&lt;font style=&quot;font-size: 14px&quot;&gt;&lt;b&gt;START&lt;/b&gt;&lt;/font&gt;" style="ellipse;whiteSpace=wrap;html=1;" parent="1" vertex="1">
          <mxGeometry x="330" y="30" width="90" height="50" as="geometry" />
        </mxCell>
        <mxCell id="LXjxUTPWMyTvLuDhcRor-6" value="" style="edgeStyle=orthogonalEdgeStyle;rounded=0;orthogonalLoop=1;jettySize=auto;html=1;" parent="1" source="LXjxUTPWMyTvLuDhcRor-2" target="LXjxUTPWMyTvLuDhcRor-4" edge="1">
          <mxGeometry relative="1" as="geometry" />
        </mxCell>
        <mxCell id="LXjxUTPWMyTvLuDhcRor-2" value="&lt;div align=&quot;justify&quot;&gt;&lt;font style=&quot;font-size: 12px&quot;&gt;Admin insert info to create tasker&lt;/font&gt;&lt;/div&gt;&lt;div align=&quot;justify&quot;&gt;&lt;ul style=&quot;line-height: 100%&quot;&gt;&lt;li&gt;&lt;font style=&quot;font-size: 12px&quot;&gt;user_name (phone)&lt;/font&gt;&lt;/li&gt;&lt;li&gt;&lt;font style=&quot;font-size: 12px&quot;&gt;country_code&lt;/font&gt;&lt;/li&gt;&lt;li&gt;&lt;font style=&quot;font-size: 12px&quot;&gt;company_code&lt;br&gt;&lt;/font&gt;&lt;/li&gt;&lt;/ul&gt;&lt;/div&gt;&lt;div align=&quot;justify&quot;&gt;&lt;font style=&quot;font-size: 12px&quot;&gt;&lt;br&gt;&lt;/font&gt;&lt;/div&gt;" style="shape=parallelogram;perimeter=parallelogramPerimeter;whiteSpace=wrap;html=1;fixedSize=1;align=center;" parent="1" vertex="1">
          <mxGeometry x="240" y="120" width="270" height="110" as="geometry" />
        </mxCell>
        <object label="" id="LXjxUTPWMyTvLuDhcRor-51">
          <mxCell style="edgeStyle=orthogonalEdgeStyle;rounded=0;orthogonalLoop=1;jettySize=auto;html=1;startArrow=none;" parent="1" source="LXjxUTPWMyTvLuDhcRor-52" target="LXjxUTPWMyTvLuDhcRor-48" edge="1">
            <mxGeometry relative="1" as="geometry" />
          </mxCell>
        </object>
        <mxCell id="LXjxUTPWMyTvLuDhcRor-4" value="&lt;div&gt;Check customer_account with&lt;/div&gt;&lt;div align=&quot;justify&quot;&gt;&lt;ul&gt;&lt;li&gt;user_name(phone)&lt;/li&gt;&lt;li&gt;country_code&lt;/li&gt;&lt;/ul&gt;&lt;/div&gt;" style="rhombus;whiteSpace=wrap;html=1;" parent="1" vertex="1">
          <mxGeometry x="227.5" y="260" width="295" height="150" as="geometry" />
        </mxCell>
        <mxCell id="LXjxUTPWMyTvLuDhcRor-19" value="&lt;div align=&quot;justify&quot;&gt;Create new:&lt;/div&gt;&lt;div align=&quot;justify&quot;&gt;_ customer_account&lt;/div&gt;" style="rounded=0;whiteSpace=wrap;html=1;" parent="1" vertex="1">
          <mxGeometry x="250" y="470" width="230" height="60" as="geometry" />
        </mxCell>
        <mxCell id="LXjxUTPWMyTvLuDhcRor-44" value="" style="group" parent="1" vertex="1" connectable="0">
          <mxGeometry x="355" y="430" width="40" height="20" as="geometry" />
        </mxCell>
        <mxCell id="LXjxUTPWMyTvLuDhcRor-28" value="No" style="text;html=1;strokeColor=none;fillColor=none;align=center;verticalAlign=middle;whiteSpace=wrap;rounded=0;labelBackgroundColor=none;" parent="LXjxUTPWMyTvLuDhcRor-44" vertex="1">
          <mxGeometry width="40" height="20" as="geometry" />
        </mxCell>
        <mxCell id="LXjxUTPWMyTvLuDhcRor-29" value="" style="endArrow=none;html=1;exitX=0.5;exitY=1;exitDx=0;exitDy=0;entryX=0.5;entryY=0;entryDx=0;entryDy=0;" parent="LXjxUTPWMyTvLuDhcRor-44" source="LXjxUTPWMyTvLuDhcRor-4" target="LXjxUTPWMyTvLuDhcRor-28" edge="1">
          <mxGeometry relative="1" as="geometry">
            <mxPoint x="20" y="-20" as="sourcePoint" />
            <mxPoint x="20" y="40" as="targetPoint" />
          </mxGeometry>
        </mxCell>
        <mxCell id="LXjxUTPWMyTvLuDhcRor-21" value="" style="endArrow=classic;html=1;exitX=0.5;exitY=1;exitDx=0;exitDy=0;entryX=0.5;entryY=0;entryDx=0;entryDy=0;startArrow=none;" parent="1" source="LXjxUTPWMyTvLuDhcRor-28" edge="1">
          <mxGeometry relative="1" as="geometry">
            <mxPoint x="85" y="70" as="sourcePoint" />
            <mxPoint x="375" y="470" as="targetPoint" />
          </mxGeometry>
        </mxCell>
        <mxCell id="u4TM5c6Gz8K2rN7uUjUe-4" value="" style="edgeStyle=orthogonalEdgeStyle;rounded=0;orthogonalLoop=1;jettySize=auto;html=1;" edge="1" parent="1" source="LXjxUTPWMyTvLuDhcRor-48" target="LXjxUTPWMyTvLuDhcRor-57">
          <mxGeometry relative="1" as="geometry" />
        </mxCell>
        <mxCell id="LXjxUTPWMyTvLuDhcRor-48" value="&lt;div&gt;Check existed worker_account active&lt;br&gt;&lt;/div&gt;&lt;div align=&quot;justify&quot;&gt;&lt;ul&gt;&lt;li&gt;user_name(phone)&lt;/li&gt;&lt;li&gt;country_code&lt;/li&gt;&lt;li&gt;active (=1)&lt;br&gt;&lt;/li&gt;&lt;/ul&gt;&lt;/div&gt;" style="rhombus;whiteSpace=wrap;html=1;" parent="1" vertex="1">
          <mxGeometry x="610" y="240" width="360" height="190" as="geometry" />
        </mxCell>
        <mxCell id="LXjxUTPWMyTvLuDhcRor-52" value="Yes" style="text;html=1;strokeColor=none;fillColor=none;align=center;verticalAlign=middle;whiteSpace=wrap;rounded=0;labelBackgroundColor=none;" parent="1" vertex="1">
          <mxGeometry x="550" y="325" width="40" height="20" as="geometry" />
        </mxCell>
        <mxCell id="LXjxUTPWMyTvLuDhcRor-54" value="" style="edgeStyle=orthogonalEdgeStyle;rounded=0;orthogonalLoop=1;jettySize=auto;html=1;endArrow=none;" parent="1" source="LXjxUTPWMyTvLuDhcRor-4" target="LXjxUTPWMyTvLuDhcRor-52" edge="1">
          <mxGeometry relative="1" as="geometry">
            <mxPoint x="522.5" y="335" as="sourcePoint" />
            <mxPoint x="610" y="335" as="targetPoint" />
          </mxGeometry>
        </mxCell>
        <mxCell id="u4TM5c6Gz8K2rN7uUjUe-5" value="" style="edgeStyle=orthogonalEdgeStyle;rounded=0;orthogonalLoop=1;jettySize=auto;html=1;" edge="1" parent="1" source="LXjxUTPWMyTvLuDhcRor-56" target="LXjxUTPWMyTvLuDhcRor-60">
          <mxGeometry relative="1" as="geometry" />
        </mxCell>
        <mxCell id="LXjxUTPWMyTvLuDhcRor-56" value="&lt;div&gt;Check existed worker_account &lt;br&gt;&lt;/div&gt;&lt;div align=&quot;justify&quot;&gt;&lt;ul&gt;&lt;li&gt;user_name(phone)&lt;/li&gt;&lt;li&gt;country_code&lt;/li&gt;&lt;li&gt;company_profile&lt;br&gt;&lt;/li&gt;&lt;/ul&gt;&lt;/div&gt;" style="rhombus;whiteSpace=wrap;html=1;labelBackgroundColor=none;" parent="1" vertex="1">
          <mxGeometry x="1120" y="236.25" width="300" height="197.5" as="geometry" />
        </mxCell>
        <mxCell id="LXjxUTPWMyTvLuDhcRor-57" value="&lt;div&gt;Return error: &lt;br&gt;&lt;/div&gt;&lt;div&gt;ERROR_WORKER_ACCOUNT_ACTIVE_EXISTED&lt;br&gt;&lt;/div&gt;" style="rounded=0;whiteSpace=wrap;html=1;labelBackgroundColor=none;" parent="1" vertex="1">
          <mxGeometry x="640" y="120" width="300" height="60" as="geometry" />
        </mxCell>
        <mxCell id="LXjxUTPWMyTvLuDhcRor-60" value="&lt;div align=&quot;justify&quot;&gt;Update :&lt;/div&gt;&lt;div align=&quot;justify&quot;&gt;_ account_profile&lt;/div&gt;&lt;div align=&quot;justify&quot;&gt;_worker_account&lt;br&gt;&lt;/div&gt;" style="rounded=0;whiteSpace=wrap;html=1;labelBackgroundColor=none;" parent="1" vertex="1">
          <mxGeometry x="1177.5" y="120" width="185" height="60" as="geometry" />
        </mxCell>
        <mxCell id="LXjxUTPWMyTvLuDhcRor-61" value="&lt;b&gt;&lt;font style=&quot;font-size: 14px&quot;&gt;END&lt;/font&gt;&lt;/b&gt;" style="ellipse;whiteSpace=wrap;html=1;labelBackgroundColor=none;" parent="1" vertex="1">
          <mxGeometry x="1060" y="30" width="80" height="45" as="geometry" />
        </mxCell>
        <mxCell id="LXjxUTPWMyTvLuDhcRor-64" value="Yes" style="text;html=1;strokeColor=none;fillColor=none;align=center;verticalAlign=middle;whiteSpace=wrap;rounded=0;labelBackgroundColor=default;" parent="1" vertex="1">
          <mxGeometry x="770" y="200" width="40" height="20" as="geometry" />
        </mxCell>
        <mxCell id="u4TM5c6Gz8K2rN7uUjUe-1" value="" style="endArrow=classic;html=1;rounded=0;edgeStyle=orthogonalEdgeStyle;entryX=0;entryY=0.5;entryDx=0;entryDy=0;" edge="1" parent="1" source="LXjxUTPWMyTvLuDhcRor-19" target="LXjxUTPWMyTvLuDhcRor-48">
          <mxGeometry width="50" height="50" relative="1" as="geometry">
            <mxPoint x="480" y="550" as="sourcePoint" />
            <mxPoint x="610" y="340" as="targetPoint" />
          </mxGeometry>
        </mxCell>
        <mxCell id="u4TM5c6Gz8K2rN7uUjUe-3" value="&lt;div align=&quot;justify&quot;&gt;Create new:&lt;/div&gt;&lt;div align=&quot;justify&quot;&gt;_ account_profile&lt;/div&gt;&lt;div align=&quot;justify&quot;&gt;_worker_account&lt;br&gt;&lt;/div&gt;" style="rounded=0;whiteSpace=wrap;html=1;labelBackgroundColor=none;" vertex="1" parent="1">
          <mxGeometry x="1570" y="297.5" width="160" height="75" as="geometry" />
        </mxCell>
        <mxCell id="u4TM5c6Gz8K2rN7uUjUe-6" value="Yes" style="text;html=1;strokeColor=none;fillColor=none;align=center;verticalAlign=middle;whiteSpace=wrap;rounded=0;labelBackgroundColor=default;" vertex="1" parent="1">
          <mxGeometry x="1240" y="195" width="60" height="30" as="geometry" />
        </mxCell>
        <mxCell id="u4TM5c6Gz8K2rN7uUjUe-8" value="" style="endArrow=classic;html=1;rounded=0;edgeStyle=orthogonalEdgeStyle;exitX=1;exitY=0.5;exitDx=0;exitDy=0;entryX=0;entryY=0.5;entryDx=0;entryDy=0;" edge="1" parent="1" source="LXjxUTPWMyTvLuDhcRor-48" target="LXjxUTPWMyTvLuDhcRor-56">
          <mxGeometry width="50" height="50" relative="1" as="geometry">
            <mxPoint x="1090" y="350" as="sourcePoint" />
            <mxPoint x="1140" y="300" as="targetPoint" />
          </mxGeometry>
        </mxCell>
        <mxCell id="u4TM5c6Gz8K2rN7uUjUe-9" value="No" style="text;html=1;strokeColor=none;fillColor=none;align=center;verticalAlign=middle;whiteSpace=wrap;rounded=0;labelBackgroundColor=default;" vertex="1" parent="1">
          <mxGeometry x="1000" y="315" width="60" height="30" as="geometry" />
        </mxCell>
        <mxCell id="u4TM5c6Gz8K2rN7uUjUe-10" value="" style="endArrow=classic;html=1;rounded=0;edgeStyle=orthogonalEdgeStyle;exitX=1;exitY=0.5;exitDx=0;exitDy=0;entryX=0;entryY=0.5;entryDx=0;entryDy=0;" edge="1" parent="1" source="LXjxUTPWMyTvLuDhcRor-56" target="u4TM5c6Gz8K2rN7uUjUe-3">
          <mxGeometry width="50" height="50" relative="1" as="geometry">
            <mxPoint x="1450" y="350" as="sourcePoint" />
            <mxPoint x="1500" y="300" as="targetPoint" />
          </mxGeometry>
        </mxCell>
        <mxCell id="u4TM5c6Gz8K2rN7uUjUe-11" value="No" style="text;html=1;strokeColor=none;fillColor=none;align=center;verticalAlign=middle;whiteSpace=wrap;rounded=0;labelBackgroundColor=default;" vertex="1" parent="1">
          <mxGeometry x="1460" y="315" width="60" height="30" as="geometry" />
        </mxCell>
        <mxCell id="u4TM5c6Gz8K2rN7uUjUe-15" value="" style="endArrow=classic;html=1;rounded=0;edgeStyle=orthogonalEdgeStyle;entryX=0;entryY=0.5;entryDx=0;entryDy=0;exitX=0.5;exitY=0;exitDx=0;exitDy=0;exitPerimeter=0;" edge="1" parent="1" source="LXjxUTPWMyTvLuDhcRor-57" target="LXjxUTPWMyTvLuDhcRor-61">
          <mxGeometry width="50" height="50" relative="1" as="geometry">
            <mxPoint x="790" y="110" as="sourcePoint" />
            <mxPoint x="1140" y="210" as="targetPoint" />
            <Array as="points">
              <mxPoint x="790" y="53" />
            </Array>
          </mxGeometry>
        </mxCell>
        <mxCell id="u4TM5c6Gz8K2rN7uUjUe-16" value="" style="endArrow=classic;html=1;rounded=0;edgeStyle=orthogonalEdgeStyle;entryX=1;entryY=0.5;entryDx=0;entryDy=0;exitX=0.5;exitY=0;exitDx=0;exitDy=0;" edge="1" parent="1" source="LXjxUTPWMyTvLuDhcRor-60" target="LXjxUTPWMyTvLuDhcRor-61">
          <mxGeometry width="50" height="50" relative="1" as="geometry">
            <mxPoint x="1090" y="260" as="sourcePoint" />
            <mxPoint x="1140" y="210" as="targetPoint" />
          </mxGeometry>
        </mxCell>
        <mxCell id="u4TM5c6Gz8K2rN7uUjUe-17" value="" style="endArrow=classic;html=1;rounded=0;edgeStyle=orthogonalEdgeStyle;entryX=1;entryY=0.5;entryDx=0;entryDy=0;exitX=0.549;exitY=0.023;exitDx=0;exitDy=0;exitPerimeter=0;" edge="1" parent="1" source="u4TM5c6Gz8K2rN7uUjUe-3" target="LXjxUTPWMyTvLuDhcRor-61">
          <mxGeometry width="50" height="50" relative="1" as="geometry">
            <mxPoint x="1090" y="260" as="sourcePoint" />
            <mxPoint x="1140" y="210" as="targetPoint" />
            <Array as="points">
              <mxPoint x="1658" y="53" />
            </Array>
          </mxGeometry>
        </mxCell>
      </root>
    </mxGraphModel>
  </diagram>
</mxfile>
